<?xml version="1.0" encoding="UTF-8"?>
<!DOCTYPE svg PUBLIC "-//W3C//DTD SVG 1.1//EN" "http://www.w3.org/Graphics/SVG/1.1/DTD/svg11.dtd">
<!-- Creator: CorelDRAW -->
<svg xmlns="http://www.w3.org/2000/svg" xml:space="preserve" width="100px" height="100px" version="1.1" style="shape-rendering:geometricPrecision; text-rendering:geometricPrecision; image-rendering:optimizeQuality; fill-rule:evenodd; clip-rule:evenodd"
viewBox="0 0 100 100"
 xmlns:xlink="http://www.w3.org/1999/xlink"
 xmlns:xodm="http://www.corel.com/coreldraw/odm/2003">
 <defs>
  <style type="text/css">
   <![CDATA[
    .fil0 {fill:#ED3237}
   ]]>
  </style>
 </defs>
 <g id="Capa_x0020_1">
  <metadata id="CorelCorpID_0Corel-Layer"/>
  <path class="fil0" d="M77.59 18.69l3.72 3.72c1.64,1.64 1.64,4.32 0,5.96l-21.63 21.63 22 21.99c1.43,1.44 1.43,3.79 0,5.23l-4.46 4.46c-1.43,1.43 -3.79,1.43 -5.22,0l-22 -22 -21.63 21.63c-1.64,1.64 -4.32,1.64 -5.96,0l-3.72 -3.72c-1.64,-1.64 -1.64,-4.32 0,-5.96l21.63 -21.63 -22 -22c-1.43,-1.43 -1.43,-3.79 0,-5.22l4.46 -4.46c1.44,-1.43 3.79,-1.43 5.23,0l21.99 22 21.63 -21.63c1.64,-1.64 4.32,-1.64 5.96,0z"/>
 </g>
</svg>
