<?xml version="1.0" encoding="UTF-8"?>
<!DOCTYPE svg PUBLIC "-//W3C//DTD SVG 1.1//EN" "http://www.w3.org/Graphics/SVG/1.1/DTD/svg11.dtd">
<!-- Creator: CorelDRAW -->
<svg xmlns="http://www.w3.org/2000/svg" xml:space="preserve" width="100px" height="100px" version="1.1" style="shape-rendering:geometricPrecision; text-rendering:geometricPrecision; image-rendering:optimizeQuality; fill-rule:evenodd; clip-rule:evenodd"
viewBox="0 0 100 100"
 xmlns:xlink="http://www.w3.org/1999/xlink"
 xmlns:xodm="http://www.corel.com/coreldraw/odm/2003">
 <defs>
  <style type="text/css">
   <![CDATA[
    .fil0 {fill:#BDBFC1;fill-rule:nonzero}
   ]]>
  </style>
 </defs>
 <g id="Capa_x0020_1">
  <metadata id="CorelCorpID_0Corel-Layer"/>
  <path class="fil0" d="M34.76 53.14l2.79 0.7c-0.59,2.29 -1.63,4.02 -3.15,5.22 -1.51,1.2 -3.36,1.8 -5.54,1.8 -2.26,0 -4.1,-0.46 -5.52,-1.38 -1.42,-0.92 -2.5,-2.26 -3.24,-4 -0.73,-1.76 -1.11,-3.63 -1.11,-5.63 0,-2.19 0.42,-4.1 1.26,-5.73 0.83,-1.63 2.02,-2.87 3.56,-3.71 1.54,-0.85 3.24,-1.27 5.09,-1.27 2.1,0 3.87,0.53 5.3,1.6 1.43,1.08 2.43,2.58 2.99,4.52l-2.73 0.64c-0.48,-1.53 -1.19,-2.64 -2.11,-3.34 -0.93,-0.69 -2.09,-1.04 -3.5,-1.04 -1.61,0 -2.96,0.38 -4.04,1.16 -1.08,0.77 -1.84,1.81 -2.28,3.11 -0.44,1.31 -0.66,2.65 -0.66,4.04 0,1.79 0.26,3.35 0.78,4.68 0.52,1.33 1.32,2.33 2.42,2.99 1.1,0.66 2.28,0.98 3.56,0.98 1.55,0 2.86,-0.44 3.94,-1.34 1.08,-0.9 1.81,-2.23 2.19,-4zm5.84 7.37l0 -21.02 2.59 0 0 21.02 -2.59 0zm6.58 -18.08l0 -2.94 2.59 0 0 2.94 -2.59 0zm0 18.08l0 -15.24 2.59 0 0 15.24 -2.59 0zm16.48 -5.58l2.52 0.35c-0.28,1.74 -0.98,3.1 -2.12,4.08 -1.14,0.98 -2.55,1.47 -4.2,1.47 -2.08,0 -3.76,-0.68 -5.02,-2.04 -1.27,-1.36 -1.9,-3.3 -1.9,-5.84 0,-1.64 0.28,-3.08 0.82,-4.31 0.54,-1.23 1.37,-2.15 2.48,-2.76 1.12,-0.62 2.32,-0.93 3.64,-0.93 1.64,0 3,0.42 4.05,1.25 1.05,0.84 1.72,2.03 2.02,3.57l-2.5 0.38c-0.24,-1.03 -0.66,-1.79 -1.27,-2.31 -0.61,-0.52 -1.34,-0.78 -2.2,-0.78 -1.3,0 -2.36,0.47 -3.18,1.4 -0.81,0.93 -1.22,2.4 -1.22,4.42 0,2.04 0.4,3.53 1.18,4.45 0.79,0.92 1.81,1.39 3.07,1.39 1.01,0 1.86,-0.31 2.54,-0.93 0.67,-0.62 1.11,-1.57 1.29,-2.86zm4.73 5.58l0 -21.02 2.59 0 0 11.97 6.1 -6.19 3.34 0 -5.81 5.67 6.4 9.57 -3.18 0 -5.06 -7.78 -1.79 1.74 0 6.04 -2.59 0z"/>
 </g>
</svg>
